<?xml version="1.0" standalone="no"?>
<!DOCTYPE svg PUBLIC "-//W3C//DTD SVG 20010904//EN"
 "http://www.w3.org/TR/2001/REC-SVG-20010904/DTD/svg10.dtd">
<svg version="1.0" xmlns="http://www.w3.org/2000/svg"
 width="835.000000pt" height="835.000000pt" viewBox="0 0 835.000000 835.000000"
 preserveAspectRatio="xMidYMid meet">
<metadata>
Created by potrace 1.11, written by Peter Selinger 2001-2013
</metadata>
<g transform="translate(0.000000,835.000000) scale(0.100000,-0.100000)"
fill="#000000" stroke="none">
<path d="M0 4175 l0 -4175 4175 0 4175 0 0 4175 0 4175 -4175 0 -4175 0 0
-4175z m2120 1670 l0 -1115 270 0 270 0 0 -325 0 -325 -270 0 -270 0 0 -1180
0 -1180 -350 0 -350 0 0 1180 0 1180 -145 0 -145 0 2 323 3 322 143 3 142 3 0
1114 0 1115 350 0 350 0 0 -1115z m3270 -1515 l0 -2600 -345 0 -345 0 0 2600
0 2600 345 0 345 0 0 -2600z m1570 0 l0 -2600 -345 0 -345 0 0 2600 0 2600
345 0 345 0 0 -2600z m-3399 2080 c178 -33 329 -189 360 -372 32 -192 -77
-395 -258 -481 -65 -31 -74 -32 -188 -32 -116 0 -122 1 -190 34 -135 66 -234
200 -254 344 -21 149 25 282 135 387 112 108 245 148 395 120z m259 -3180 l0
-1500 -345 0 -345 0 0 1500 0 1500 345 0 345 0 0 -1500z"/>
</g>
</svg>
