<svg id="svg" version="1.1" width="400" height="400" viewBox="0 0 400 400" 
	xmlns="http://www.w3.org/2000/svg" 
	xmlns:xlink="http://www.w3.org/1999/xlink">
	<g id="svgg">
		<path id="path0" d="M68.000 120.190 L 68.000 173.581 61.300 173.690 L 54.600 173.800 54.495 189.100 L 54.390 204.400 61.194 204.400 L 67.997 204.400 68.099 260.900 L 68.200 317.400 84.900 317.504 L 101.600 317.609 101.600 261.004 L 101.600 204.400 114.405 204.400 L 127.210 204.400 127.105 189.100 L 127.000 173.800 114.300 173.694 L 101.600 173.589 101.600 120.194 L 101.600 66.800 84.800 66.800 L 68.000 66.800 68.000 120.190 M225.200 192.800 L 225.200 317.200 241.600 317.200 L 258.000 317.200 258.000 192.800 L 258.000 68.400 241.600 68.400 L 225.200 68.400 225.200 192.800 M300.400 192.800 L 300.400 317.200 316.800 317.200 L 333.200 317.200 333.200 192.800 L 333.200 68.400 316.800 68.400 L 300.400 68.400 300.400 192.800 M162.200 93.064 C 145.517 96.625,139.393 116.978,151.377 129.032 C 162.032 139.750,178.930 137.077,185.719 123.600 C 193.586 107.985,179.284 89.417,162.200 93.064 M150.000 245.400 L 150.000 317.200 166.400 317.200 L 182.800 317.200 182.800 245.400 L 182.800 173.600 166.400 173.600 L 150.000 173.600 150.000 245.400 " stroke="none" fill="#fbfbfa" fill-rule="evenodd"></path>
		<path id="path1" d="M0.000 200.000 L 0.000 400.000 200.000 400.000 L 400.000 400.000 400.000 200.000 L 400.000 0.000 200.000 0.000 L 0.000 0.000 0.000 200.000 M101.582 66.222 C 101.873 66.513,102.005 83.078,102.007 119.722 L 102.011 172.800 112.306 172.863 C 117.968 172.898,123.550 172.880,124.711 172.824 C 128.199 172.653,128.000 171.698,128.000 188.623 C 128.000 196.857,127.833 203.987,127.628 204.526 L 127.256 205.505 115.128 205.517 C 108.458 205.524,102.775 205.545,102.500 205.565 C 102.103 205.593,101.999 217.069,101.994 261.500 C 101.991 292.245,101.842 317.629,101.664 317.910 C 101.177 318.678,68.098 318.832,67.804 318.067 C 67.692 317.774,67.600 292.349,67.600 261.567 L 67.600 205.600 65.300 205.562 C 64.035 205.541,61.186 205.544,58.970 205.570 C 53.099 205.639,53.591 207.150,53.575 189.001 C 53.566 178.939,53.702 173.738,53.982 173.458 C 54.484 172.956,54.991 172.918,62.100 172.852 L 67.600 172.800 67.600 119.467 C 67.600 90.133,67.729 66.004,67.887 65.846 C 68.360 65.374,101.099 65.738,101.582 66.222 M258.300 67.852 L 259.200 68.093 259.200 192.367 C 259.200 288.490,259.091 316.749,258.720 317.120 C 258.030 317.810,225.570 317.810,224.880 317.120 C 224.163 316.403,224.182 68.154,224.900 67.865 C 225.618 67.575,257.222 67.563,258.300 67.852 M333.800 192.600 L 333.800 317.400 317.024 317.504 C 307.798 317.562,300.101 317.461,299.919 317.279 C 299.382 316.742,299.517 68.782,300.055 68.134 C 300.423 67.690,303.534 67.610,317.153 67.696 L 333.800 67.800 333.800 192.600 M169.703 92.176 C 171.812 92.492,174.305 93.122,175.244 93.576 C 176.182 94.029,177.104 94.400,177.293 94.400 C 177.481 94.400,178.122 94.866,178.717 95.435 C 179.313 96.004,180.475 96.906,181.300 97.440 C 182.125 97.973,182.800 98.566,182.800 98.758 C 182.800 98.949,183.332 99.625,183.982 100.261 C 184.632 100.896,185.445 102.043,185.788 102.808 C 186.131 103.574,186.570 104.470,186.763 104.800 C 187.453 105.977,188.150 107.813,188.208 108.600 C 188.240 109.040,188.420 110.570,188.607 112.000 C 188.795 113.430,188.914 114.738,188.872 114.908 C 188.830 115.077,188.616 116.475,188.398 118.016 C 187.283 125.878,179.731 134.303,172.600 135.640 C 171.720 135.805,170.331 136.113,169.513 136.325 C 168.087 136.694,165.127 136.474,160.800 135.678 C 158.953 135.339,151.928 131.788,151.639 131.048 C 151.551 130.821,150.729 129.818,149.812 128.818 C 143.533 121.970,142.338 111.604,146.882 103.400 C 147.960 101.452,148.322 100.986,150.402 98.855 C 153.934 95.238,157.941 93.078,162.800 92.174 C 164.230 91.908,165.506 91.670,165.635 91.645 C 165.764 91.620,167.595 91.859,169.703 92.176 M183.083 173.269 C 183.502 173.617,183.600 187.327,183.600 245.653 L 183.600 317.609 166.500 317.504 L 149.400 317.400 149.297 245.600 C 149.201 178.132,149.236 173.769,149.882 173.294 C 150.786 172.629,182.283 172.605,183.083 173.269 " stroke="none" fill="#e36b13" fill-rule="evenodd"></path>
		<path id="path2" d="M76.527 66.300 C 81.107 66.364,88.487 66.364,92.927 66.299 C 97.367 66.235,93.620 66.183,84.600 66.183 C 75.580 66.183,71.947 66.235,76.527 66.300 M258.597 192.600 C 258.597 261.020,258.644 289.070,258.700 254.932 C 258.756 220.795,258.756 164.815,258.700 130.532 C 258.644 96.250,258.597 124.180,258.597 192.600 M68.220 317.900 C 68.429 318.065,75.980 318.106,85.000 317.991 L 101.400 317.782 84.620 317.691 C 75.391 317.641,68.011 317.735,68.220 317.900 " stroke="none" fill="#c3743c" fill-rule="evenodd"></path>
		<path id="path3" d="M67.867 65.867 C 67.720 66.013,67.600 90.128,67.600 119.456 L 67.600 172.778 61.900 172.907 L 56.200 173.035 62.000 173.018 L 67.800 173.000 68.000 119.600 L 68.200 66.200 84.000 65.993 L 99.800 65.786 83.967 65.693 C 75.258 65.642,68.013 65.720,67.867 65.867 M224.900 67.865 C 224.501 68.026,224.420 93.260,224.499 192.533 L 224.598 317.000 224.799 192.600 L 225.000 68.200 241.600 67.993 L 258.200 67.787 241.800 67.725 C 232.780 67.691,225.175 67.754,224.900 67.865 M316.900 67.898 L 333.600 68.009 333.600 192.604 L 333.600 317.200 316.800 317.200 C 301.067 317.200,300.000 317.156,299.998 316.500 C 299.997 316.115,299.953 260.090,299.901 192.000 L 299.805 68.200 299.603 192.200 C 299.491 260.400,299.542 316.517,299.716 316.904 C 300.012 317.563,301.126 317.602,316.916 317.504 L 333.800 317.400 333.800 192.600 L 333.800 67.800 317.000 67.793 L 300.200 67.787 316.900 67.898 M101.740 120.200 C 101.713 149.020,101.805 172.060,101.945 171.400 C 102.085 170.740,102.108 147.160,101.995 119.000 L 101.790 67.800 101.740 120.200 M258.703 192.300 C 258.799 308.845,258.763 316.631,258.126 317.100 C 257.753 317.375,257.625 317.600,257.844 317.600 C 259.213 317.600,259.200 318.827,259.200 192.320 C 259.200 123.944,259.065 68.000,258.900 68.000 C 258.735 68.000,258.646 123.935,258.703 192.300 M162.438 92.227 C 160.809 92.524,158.503 93.260,157.313 93.862 C 153.994 95.541,154.376 95.762,157.792 94.139 C 160.540 92.835,161.229 92.682,165.309 92.474 C 168.905 92.291,169.481 92.186,168.200 91.946 C 166.178 91.567,166.011 91.575,162.438 92.227 M170.800 92.643 C 176.161 93.696,181.798 97.636,185.297 102.776 C 185.681 103.339,185.995 103.620,185.996 103.400 C 185.998 102.814,184.466 100.400,184.092 100.400 C 183.916 100.400,183.453 99.859,183.062 99.198 C 182.672 98.537,181.868 97.737,181.276 97.421 C 180.684 97.104,179.625 96.295,178.922 95.623 C 178.219 94.950,177.487 94.400,177.297 94.400 C 177.106 94.400,176.151 94.013,175.175 93.541 C 174.199 93.068,172.590 92.629,171.600 92.564 C 170.610 92.499,170.250 92.535,170.800 92.643 M152.883 96.539 C 151.497 97.562,148.462 100.727,147.762 101.879 C 146.316 104.263,145.474 106.219,144.625 109.173 C 143.915 111.642,143.792 114.176,144.400 113.800 C 144.620 113.664,144.804 112.888,144.810 112.076 C 144.840 107.537,147.109 102.794,151.208 98.700 C 152.915 96.995,154.276 95.600,154.233 95.600 C 154.191 95.600,153.583 96.022,152.883 96.539 M186.013 104.251 C 186.039 104.960,187.200 106.207,187.200 105.525 C 187.200 105.180,186.930 104.674,186.600 104.400 C 186.270 104.126,186.006 104.059,186.013 104.251 M187.398 107.000 C 187.562 107.440,187.704 108.031,187.714 108.313 C 187.726 108.637,187.873 108.687,188.113 108.447 C 188.352 108.208,188.236 107.723,187.797 107.134 C 187.223 106.363,187.154 106.340,187.398 107.000 M188.400 114.200 C 188.400 115.483,188.513 116.420,188.651 116.282 C 188.951 115.982,188.919 112.386,188.614 112.080 C 188.496 111.963,188.400 112.917,188.400 114.200 M144.217 114.918 C 143.305 116.988,146.732 125.562,149.769 128.808 C 150.709 129.814,151.551 130.823,151.639 131.052 C 151.939 131.828,159.492 135.601,160.661 135.559 L 161.800 135.518 160.514 135.212 C 152.696 133.354,145.910 125.376,144.853 116.800 C 144.630 114.994,144.436 114.419,144.217 114.918 M187.731 119.180 C 186.380 126.289,179.603 133.472,172.600 135.219 L 171.400 135.518 172.513 135.559 C 177.956 135.759,187.466 125.623,188.280 118.756 C 188.600 116.053,188.278 116.303,187.731 119.180 M162.879 136.108 C 164.103 136.560,169.700 136.608,170.475 136.173 C 170.917 135.925,169.613 135.800,166.592 135.800 C 164.008 135.800,162.405 135.933,162.879 136.108 M106.876 173.099 C 109.668 173.167,114.348 173.168,117.276 173.099 C 120.204 173.031,117.920 172.975,112.200 172.974 C 106.480 172.974,104.084 173.030,106.876 173.099 M125.400 173.163 L 127.400 173.400 127.607 188.800 L 127.814 204.200 127.907 188.980 C 128.011 172.038,128.131 172.762,125.220 172.863 L 123.400 172.926 125.400 173.163 M156.700 173.099 C 160.275 173.166,166.125 173.166,169.700 173.099 C 173.275 173.033,170.350 172.979,163.200 172.979 C 156.050 172.979,153.125 173.033,156.700 173.099 M179.800 173.173 L 183.000 173.400 183.101 245.281 L 183.202 317.162 180.701 317.304 L 178.200 317.446 180.900 317.523 L 183.600 317.600 183.600 245.680 C 183.600 190.276,183.490 173.650,183.120 173.280 C 182.817 172.977,181.528 172.827,179.620 172.873 L 176.600 172.947 179.800 173.173 M53.804 173.593 C 53.505 174.077,53.504 204.038,53.803 204.337 C 53.921 204.455,54.006 197.674,53.991 189.267 C 53.976 180.861,54.072 173.807,54.205 173.592 C 54.338 173.376,54.357 173.200,54.247 173.200 C 54.137 173.200,53.938 173.377,53.804 173.593 M149.385 173.700 C 149.280 173.975,149.241 206.420,149.297 245.800 L 149.400 317.400 163.400 317.408 L 177.400 317.416 163.498 317.303 L 149.596 317.190 149.698 245.195 C 149.754 205.598,149.749 173.200,149.687 173.200 C 149.626 173.200,149.489 173.425,149.385 173.700 M54.659 205.295 C 54.769 205.473,56.691 205.597,58.929 205.571 C 61.168 205.545,64.035 205.541,65.300 205.562 L 67.600 205.600 67.600 261.567 C 67.600 292.349,67.692 317.774,67.804 318.067 C 67.971 318.501,71.102 318.583,84.675 318.510 C 101.952 318.416,102.025 318.409,101.966 316.800 C 101.952 316.417,101.831 316.490,101.632 317.000 C 101.351 317.721,69.902 318.736,68.300 318.076 C 68.135 318.008,68.000 292.684,68.000 261.800 C 68.000 217.313,67.896 205.582,67.500 205.332 C 66.837 204.914,54.402 204.879,54.659 205.295 M102.479 205.137 C 102.192 205.322,107.621 205.478,114.587 205.485 C 121.533 205.492,127.305 205.354,127.414 205.177 C 127.680 204.747,103.145 204.708,102.479 205.137 M101.794 260.800 C 101.794 291.050,101.842 303.425,101.900 288.300 C 101.958 273.175,101.958 248.425,101.900 233.300 C 101.842 218.175,101.794 230.550,101.794 260.800 M232.873 317.499 C 237.204 317.564,244.404 317.564,248.873 317.500 C 253.343 317.435,249.800 317.382,241.000 317.382 C 232.200 317.382,228.543 317.435,232.873 317.499 " stroke="none" fill="#cd742a" fill-rule="evenodd"></path>
		<path id="path4" d="M76.300 66.700 C 80.975 66.764,88.625 66.764,93.300 66.700 C 97.975 66.636,94.150 66.583,84.800 66.583 C 75.450 66.583,71.625 66.636,76.300 66.700 M224.985 68.500 C 224.881 68.775,224.842 124.890,224.898 193.200 L 225.001 317.400 225.101 192.900 L 225.200 68.400 241.599 68.400 L 257.999 68.400 258.100 192.900 L 258.201 317.400 258.301 192.700 L 258.400 68.000 241.787 68.000 C 228.865 68.000,225.133 68.111,224.985 68.500 M300.099 192.700 L 300.199 317.400 300.300 192.900 L 300.401 68.400 316.800 68.400 L 333.199 68.400 333.300 192.900 L 333.401 317.400 333.501 192.700 L 333.600 68.000 316.800 68.000 L 300.000 68.000 300.099 192.700 M161.000 92.961 C 159.305 93.379,156.180 94.735,156.800 94.784 C 156.910 94.792,157.990 94.416,159.200 93.948 C 160.677 93.376,162.846 93.002,165.800 92.810 L 170.200 92.523 166.600 92.495 C 164.620 92.480,162.100 92.690,161.000 92.961 M172.000 93.421 C 174.251 94.130,174.986 94.112,173.400 93.386 C 172.740 93.083,171.750 92.840,171.200 92.845 C 170.496 92.851,170.733 93.021,172.000 93.421 M176.398 95.038 C 177.388 95.603,178.423 96.253,178.698 96.482 C 178.974 96.711,179.200 96.782,179.200 96.640 C 179.200 96.296,175.558 93.999,175.022 94.005 C 174.790 94.007,175.409 94.472,176.398 95.038 M154.944 95.569 C 154.253 95.990,153.567 96.530,153.420 96.768 C 153.272 97.006,153.793 96.823,154.577 96.360 C 155.361 95.898,156.103 95.358,156.225 95.160 C 156.542 94.647,156.360 94.705,154.944 95.569 M181.586 98.913 C 183.802 101.231,184.950 102.104,183.170 100.118 C 181.805 98.595,181.504 98.303,180.388 97.413 C 179.844 96.980,180.384 97.655,181.586 98.913 M150.754 99.094 C 148.737 101.270,146.604 104.529,146.234 106.000 C 146.096 106.550,146.429 106.127,146.975 105.059 C 148.184 102.695,149.701 100.635,151.525 98.881 C 152.279 98.156,152.812 97.478,152.709 97.375 C 152.605 97.272,151.726 98.045,150.754 99.094 M184.829 102.900 C 185.687 104.414,186.000 104.714,186.000 104.022 C 186.000 103.815,185.545 103.140,184.989 102.522 L 183.979 101.400 184.829 102.900 M186.614 106.200 C 188.073 110.600,188.247 117.216,187.003 121.000 C 186.770 121.708,186.791 121.721,187.183 121.112 C 188.708 118.746,188.582 109.251,186.990 106.506 C 186.638 105.898,186.468 105.760,186.614 106.200 M144.731 112.281 C 144.649 113.316,144.696 114.981,144.837 115.981 C 145.035 117.389,145.105 116.963,145.147 114.100 C 145.204 110.156,144.978 109.170,144.731 112.281 M145.635 120.400 C 145.605 121.054,147.440 125.200,147.760 125.200 C 147.868 125.200,147.542 124.255,147.036 123.100 C 146.530 121.945,146.015 120.730,145.890 120.400 C 145.688 119.867,145.660 119.867,145.635 120.400 M185.242 124.502 C 183.931 126.867,180.658 130.520,178.200 132.359 L 177.000 133.257 178.338 132.528 C 180.276 131.474,184.617 126.734,185.821 124.359 C 187.282 121.475,186.861 121.578,185.242 124.502 M148.358 126.322 C 149.068 127.648,153.601 131.984,154.945 132.622 C 156.175 133.206,156.180 133.205,155.200 132.540 C 154.650 132.168,152.789 130.436,151.065 128.692 C 149.340 126.948,148.122 125.881,148.358 126.322 M156.621 133.634 C 156.846 133.999,160.787 135.346,161.001 135.132 C 161.084 135.050,160.089 134.611,158.792 134.156 C 157.494 133.701,156.518 133.467,156.621 133.634 M173.600 134.454 C 172.570 134.896,172.263 135.133,172.882 135.010 C 174.307 134.725,176.000 134.074,176.000 133.810 C 176.000 133.494,175.574 133.609,173.600 134.454 M165.507 135.890 C 166.226 135.979,167.306 135.977,167.907 135.886 C 168.508 135.795,167.920 135.722,166.600 135.724 C 165.280 135.726,164.788 135.801,165.507 135.890 M54.267 173.467 C 54.120 173.613,54.000 180.723,54.000 189.267 L 54.000 204.800 61.100 204.710 L 68.200 204.620 61.295 204.501 L 54.391 204.381 54.495 189.091 L 54.600 173.800 61.400 173.585 L 68.200 173.371 61.367 173.285 C 57.608 173.238,54.413 173.320,54.267 173.467 M114.200 173.589 L 127.000 173.800 127.105 189.094 L 127.209 204.389 114.305 204.500 L 101.400 204.611 114.505 204.706 L 127.609 204.800 127.505 189.100 L 127.400 173.400 114.400 173.389 L 101.400 173.377 114.200 173.589 M149.787 173.696 C 149.681 173.973,149.641 206.420,149.698 245.800 L 149.802 317.400 149.901 245.500 L 150.000 173.600 166.399 173.600 L 182.798 173.600 182.901 245.400 L 183.003 317.200 183.002 245.300 L 183.000 173.400 166.489 173.296 C 153.494 173.213,149.937 173.299,149.787 173.696 " stroke="none" fill="#dc9868" fill-rule="evenodd"></path>
	</g>
</svg>