<?xml version="1.0" standalone="no"?>
<!DOCTYPE svg PUBLIC "-//W3C//DTD SVG 20010904//EN"
 "http://www.w3.org/TR/2001/REC-SVG-20010904/DTD/svg10.dtd">
<svg version="1.0" xmlns="http://www.w3.org/2000/svg"
 width="1998.000000pt" height="1998.000000pt" viewBox="0 0 1998.000000 1998.000000"
 preserveAspectRatio="xMidYMid meet">
<metadata>
Created by potrace 1.11, written by Peter Selinger 2001-2013
</metadata>
<g transform="translate(0.000000,1998.000000) scale(0.100000,-0.100000)"
fill="#000000" stroke="none">
<path d="M0 9990 l0 -9990 9990 0 9990 0 0 9990 0 9990 -9990 0 -9990 0 0
-9990z m4910 6689 c90 -5 166 -12 169 -14 13 -14 20 -1037 20 -3047 l1 -2278
618 0 c486 0 622 -3 636 -13 36 -26 39 -80 43 -651 4 -557 -6 -917 -27 -955
-11 -21 -16 -21 -629 -21 l-619 0 -6 -57 c-3 -32 -10 -1244 -15 -2693 -5
-1449 -13 -2687 -17 -2751 l-7 -116 -171 -13 c-114 -9 -356 -13 -731 -13 -521
1 -765 9 -783 27 -4 4 -8 1270 -10 2812 l-4 2804 -298 0 c-194 0 -307 4 -323
11 -40 18 -58 62 -69 170 -11 116 -5 1371 7 1407 4 13 19 28 34 34 15 6 163
12 339 15 l312 6 0 2081 c0 1145 3 2347 7 2673 l6 592 101 4 c177 7 1244 -4
1416 -14z m8028 -95 l24 -7 -6 -6096 c-4 -3353 -9 -6155 -12 -6227 l-5 -130
-182 -12 c-235 -16 -1098 -16 -1333 0 l-180 11 -12 1281 c-16 1693 -16 8221 0
9908 l12 1277 135 4 c224 6 1534 -1 1559 -9z m3515 6 l237 0 0 -6238 0 -6239
-647 -7 c-357 -3 -738 -3 -849 0 l-201 7 -6 1170 c-17 2996 0 11268 23 11291
20 20 182 24 690 20 283 -2 622 -4 753 -4z m-8008 -1215 c66 -9 152 -24 192
-34 108 -28 249 -90 296 -131 23 -20 79 -64 125 -99 45 -34 82 -65 82 -70 0
-4 27 -39 60 -77 42 -48 80 -109 126 -200 70 -143 85 -195 105 -391 33 -322
-76 -621 -325 -890 -98 -106 -246 -208 -366 -252 -112 -41 -267 -71 -368 -71
-120 0 -328 31 -402 60 -63 25 -275 129 -325 160 -39 24 -195 200 -252 285
-211 313 -242 737 -78 1084 60 125 115 199 229 308 147 141 278 221 456 279
97 31 265 64 300 58 14 -2 79 -10 145 -19z m647 -4051 l66 -6 6 -71 c4 -40 9
-1664 12 -3611 l5 -3539 -853 8 c-469 4 -854 8 -855 9 -1 1 -3 1587 -5 3526
-3 3021 -1 3536 11 3601 l15 77 140 10 c144 10 1333 7 1458 -4z"/>
</g>
</svg>
