<svg id="svg" version="1.1" width="400" height="400" viewBox="0 0 400 400" 
	xmlns="http://www.w3.org/2000/svg" 
	xmlns:xlink="http://www.w3.org/1999/xlink">
	<g id="svgg">
		<path id="path1" d="M0.000 200.000 L 0.000 400.000 200.000 400.000 L 400.000 400.000 400.000 200.000 L 400.000 0.000 200.000 0.000 L 0.000 0.000 0.000 200.000 M101.582 66.222 C 101.873 66.513,102.005 83.078,102.007 119.722 L 102.011 172.800 112.306 172.863 C 117.968 172.898,123.550 172.880,124.711 172.824 C 128.199 172.653,128.000 171.698,128.000 188.623 C 128.000 196.857,127.833 203.987,127.628 204.526 L 127.256 205.505 115.128 205.517 C 108.458 205.524,102.775 205.545,102.500 205.565 C 102.103 205.593,101.999 217.069,101.994 261.500 C 101.991 292.245,101.842 317.629,101.664 317.910 C 101.177 318.678,68.098 318.832,67.804 318.067 C 67.692 317.774,67.600 292.349,67.600 261.567 L 67.600 205.600 65.300 205.562 C 64.035 205.541,61.186 205.544,58.970 205.570 C 53.099 205.639,53.591 207.150,53.575 189.001 C 53.566 178.939,53.702 173.738,53.982 173.458 C 54.484 172.956,54.991 172.918,62.100 172.852 L 67.600 172.800 67.600 119.467 C 67.600 90.133,67.729 66.004,67.887 65.846 C 68.360 65.374,101.099 65.738,101.582 66.222 M258.300 67.852 L 259.200 68.093 259.200 192.367 C 259.200 288.490,259.091 316.749,258.720 317.120 C 258.030 317.810,225.570 317.810,224.880 317.120 C 224.163 316.403,224.182 68.154,224.900 67.865 C 225.618 67.575,257.222 67.563,258.300 67.852 M333.800 192.600 L 333.800 317.400 317.024 317.504 C 307.798 317.562,300.101 317.461,299.919 317.279 C 299.382 316.742,299.517 68.782,300.055 68.134 C 300.423 67.690,303.534 67.610,317.153 67.696 L 333.800 67.800 333.800 192.600 M169.703 92.176 C 171.812 92.492,174.305 93.122,175.244 93.576 C 176.182 94.029,177.104 94.400,177.293 94.400 C 177.481 94.400,178.122 94.866,178.717 95.435 C 179.313 96.004,180.475 96.906,181.300 97.440 C 182.125 97.973,182.800 98.566,182.800 98.758 C 182.800 98.949,183.332 99.625,183.982 100.261 C 184.632 100.896,185.445 102.043,185.788 102.808 C 186.131 103.574,186.570 104.470,186.763 104.800 C 187.453 105.977,188.150 107.813,188.208 108.600 C 188.240 109.040,188.420 110.570,188.607 112.000 C 188.795 113.430,188.914 114.738,188.872 114.908 C 188.830 115.077,188.616 116.475,188.398 118.016 C 187.283 125.878,179.731 134.303,172.600 135.640 C 171.720 135.805,170.331 136.113,169.513 136.325 C 168.087 136.694,165.127 136.474,160.800 135.678 C 158.953 135.339,151.928 131.788,151.639 131.048 C 151.551 130.821,150.729 129.818,149.812 128.818 C 143.533 121.970,142.338 111.604,146.882 103.400 C 147.960 101.452,148.322 100.986,150.402 98.855 C 153.934 95.238,157.941 93.078,162.800 92.174 C 164.230 91.908,165.506 91.670,165.635 91.645 C 165.764 91.620,167.595 91.859,169.703 92.176 M183.083 173.269 C 183.502 173.617,183.600 187.327,183.600 245.653 L 183.600 317.609 166.500 317.504 L 149.400 317.400 149.297 245.600 C 149.201 178.132,149.236 173.769,149.882 173.294 C 150.786 172.629,182.283 172.605,183.083 173.269 " stroke="none" fill="#365fa0" fill-rule="evenodd"></path>
	</g>
</svg> 